<?xml version="1.0" encoding="UTF-8"?>
<!DOCTYPE svg PUBLIC "-//W3C//DTD SVG 1.1//EN" "http://www.w3.org/Graphics/SVG/1.1/DTD/svg11.dtd">
<!-- Creator: CorelDRAW -->
<svg xmlns="http://www.w3.org/2000/svg" xml:space="preserve" width="6.82666in" height="6.82666in" style="shape-rendering:geometricPrecision; text-rendering:geometricPrecision; image-rendering:optimizeQuality; fill-rule:evenodd; clip-rule:evenodd"
viewBox="0 0 6.82666 6.82666"
 xmlns:xlink="http://www.w3.org/1999/xlink">
 <defs>
  <style type="text/css">
   <![CDATA[
    .fil1 {fill:none}
    .fil0 {fill:#e11d48;fill-rule:nonzero}
   ]]>
  </style>
 </defs>
 <g id="Layer_x0020_1">
  <metadata id="CorelCorpID_0Corel-Layer"/>
  <path class="fil0" d="M3.16346 2.21498c0.0445551,0.0131772 0.0879291,0.0285512 0.129996,0.0459882 0.042563,0.0176417 0.0841614,0.0375551 0.124657,0.0595945l0.315327 -0.315327 -7.87402e-006 -7.87402e-006c0.0416535,-0.0416535 0.109197,-0.0416535 0.15085,0l0.000590551 0.000606299 0.383193 0.383193 7.87402e-006 -7.87402e-006c0.0416535,0.0416535 0.0416535,0.109197 0,0.15085l-0.000606299 0.000590551 -0.314728 0.314724c0.0220236,0.0404685 0.0419213,0.0820433 0.0595591,0.124579 0.0174449,0.0420866 0.0328307,0.0854843 0.0460197,0.130071l0.445843 0c0.0589094,0 0.106669,0.0477598 0.106669,0.106669l0 0.542764c0,0.0589094 -0.0477598,0.106669 -0.106669,0.106669l-0.445839 0c-0.0131772,0.0445591 -0.0285551,0.0879331 -0.0459921,0.130004 -0.0176417,0.0425591 -0.0375551,0.0841575 -0.0595906,0.12465l0.315327 0.315323 7.87402e-006 -7.87402e-006c0.0416535,0.0416535 0.0416535,0.109197 0,0.15085l-0.000606299 0.000590551 -0.383193 0.383197 7.87402e-006 7.87402e-006c-0.0416535,0.0416535 -0.109197,0.0416535 -0.15085,0l-0.000590551 -0.000606299 -0.314724 -0.314724c-0.0404646,0.0220197 -0.0820394,0.0419252 -0.124575,0.0595551 -0.0420906,0.0174488 -0.0854961,0.0328307 -0.130083,0.0460197l0 0.445843c0,0.0589094 -0.0477598,0.106669 -0.106669,0.106669l-0.542764 0c-0.0589094,0 -0.106669,-0.0477598 -0.106669,-0.106669l0 -0.445835c-0.044563,-0.0131772 -0.087937,-0.0285551 -0.130004,-0.0459961 -0.0425591,-0.0176417 -0.0841575,-0.0375591 -0.124646,-0.0595906l-0.315327 0.315327 7.87402e-006 7.87402e-006c-0.0416535,0.0416535 -0.109197,0.0416535 -0.15085,0l-0.000590551 -0.000606299 -0.383189 -0.383193 -7.87402e-006 7.87402e-006c-0.0416535,-0.0416535 -0.0416535,-0.109197 0,-0.15085l0.000606299 -0.000590551 0.31472 -0.314724c-0.0220197,-0.0404646 -0.0419252,-0.0820394 -0.0595551,-0.124575 -0.0174488,-0.0420906 -0.0328307,-0.0854961 -0.0460197,-0.130083l-0.445843 0c-0.0589094,0 -0.106669,-0.0477598 -0.106669,-0.106669l0 -0.542764c0,-0.0589094 0.0477598,-0.106669 0.106669,-0.106669l0.445839 0c0.0131772,-0.0445551 0.0285512,-0.0879291 0.0459882,-0.129996 0.0176457,-0.0425591 0.0375591,-0.0841614 0.0595945,-0.124654l-0.315323 -0.315323 -7.87402e-006 7.87402e-006c-0.0416535,-0.0416535 -0.0416535,-0.109197 0,-0.15085l0.000606299 -0.000590551 0.383189 -0.383193 -7.87402e-006 -7.87402e-006c0.0416535,-0.0416535 0.109197,-0.0416535 0.15085,0l0.000590551 0.000606299 0.314728 0.314724c0.0404685,-0.0220197 0.0820433,-0.0419213 0.124583,-0.0595591 0.0420866,-0.0174488 0.0854882,-0.0328307 0.130067,-0.0460157l0 -0.445846c0,-0.0589094 0.0477598,-0.106669 0.106669,-0.106669l0.542764 0c0.0589094,0 0.106669,0.0477598 0.106669,0.106669l0 0.445843zm0.0483268 0.242657c-0.0552992,-0.0229213 -0.112343,-0.0414488 -0.170665,-0.0551339 -0.0514803,-0.00758268 -0.091,-0.0519331 -0.091,-0.10552l0 -0.421177 -0.329425 0 0 0.419441c0.000854331,0.0494252 -0.032937,0.094378 -0.0830512,0.105756l-0.0236181 -0.10402 0.0233346 0.103752c-0.0610118,0.0138504 -0.120654,0.0329921 -0.178402,0.0569331 -0.0562244,0.023311 -0.109776,0.0508228 -0.16022,0.0820984 -0.0417559,0.0309567 -0.100996,0.0275118 -0.138854,-0.0103465l7.87402e-006 -7.87402e-006 -0.297929 -0.297925 -0.232953 0.232957 0.296161 0.296161c0.0360197,0.0343031 0.044126,0.0903346 0.0165906,0.134039l-0.000267717 -0.000169291c-0.0330315,0.0524291 -0.0619764,0.108272 -0.0863386,0.167031 -0.0229213,0.0552992 -0.0414488,0.112343 -0.0551339,0.170665 -0.00758268,0.0514803 -0.0519331,0.091 -0.10552,0.091l-0.421173 0 0 0.329425 0.419437 0c0.0494252,-0.000854331 0.094378,0.032937 0.105756,0.0830512l-0.10402 0.0236181 0.103752 -0.0233346c0.0138543,0.0610197 0.0329921,0.120665 0.056937,0.178417 0.0233071,0.0562205 0.0508189,0.109768 0.0820945,0.160213 0.0309567,0.0417559 0.0275118,0.100996 -0.0103465,0.138854l-7.87402e-006 -7.87402e-006 -0.297921 0.297925 0.232953 0.232957 0.296224 -0.296224c0.034311,-0.0359724 0.0903031,-0.0440551 0.133984,-0.0165276l-0.000165354 0.00026378c0.0524213,0.0330315 0.108256,0.0619764 0.167016,0.0863346 0.0552953,0.0229252 0.112331,0.0414528 0.170661,0.0551339 0.0514843,0.0075748 0.0910118,0.0519331 0.0910118,0.105524l0 0.421173 0.329425 0 0 -0.419437c-0.000854331,-0.0494252 0.032937,-0.094378 0.0830512,-0.105756l0.0236181 0.10402 -0.0233346 -0.103752c0.0610197,-0.0138543 0.120669,-0.0329961 0.178417,-0.056937 0.0562244,-0.0233071 0.109772,-0.0508189 0.160213,-0.0820945 0.0417559,-0.0309567 0.100996,-0.0275118 0.138854,0.0103465l-7.87402e-006 7.87402e-006 0.297925 0.297925 0.232957 -0.232961 -0.296161 -0.296157c-0.0360236,-0.0343031 -0.0441339,-0.0903307 -0.0165984,-0.134039l0.000267717 0.000169291c0.0330276,-0.0524291 0.0619764,-0.108268 0.0863386,-0.167031 0.0229252,-0.055311 0.0414528,-0.112346 0.0551378,-0.170677 0.00758268,-0.0514803 0.0519331,-0.0909961 0.10552,-0.0909961l0.421173 0 0 -0.329425 -0.419437 0c-0.0494252,0.000854331 -0.094378,-0.032937 -0.105756,-0.0830512l0.10402 -0.0236181 -0.103752 0.0233346c-0.0138504,-0.0610118 -0.0329961,-0.120654 -0.056937,-0.178406 -0.023311,-0.0562244 -0.0508228,-0.109772 -0.0820984,-0.160217 -0.0309567,-0.0417559 -0.0275118,-0.100996 0.0103465,-0.138854l7.87402e-006 7.87402e-006 0.297929 -0.297925 -0.232957 -0.232957 -0.296165 0.296165c-0.0343031,0.0360197 -0.0903346,0.044126 -0.134039,0.0165906l0.000169291 -0.000267717c-0.0524252,-0.0330276 -0.108276,-0.0619764 -0.167035,-0.0863386z"/>
  <path class="fil0" d="M2.78542 2.61231c0.241768,0 0.460665,0.0980079 0.619122,0.256461 0.158453,0.158453 0.256461,0.37735 0.256461,0.619122 0,0.241772 -0.0980079,0.460669 -0.256461,0.619122 -0.158457,0.158453 -0.377354,0.256461 -0.619122,0.256461 -0.241772,0 -0.460669,-0.0980079 -0.619122,-0.256461 -0.158453,-0.158453 -0.256461,-0.37735 -0.256461,-0.619122 0,-0.241772 0.0980079,-0.460669 0.256461,-0.619122 0.158453,-0.158453 0.37735,-0.256461 0.619122,-0.256461zm0.468287 0.407295c-0.119839,-0.119835 -0.285406,-0.193957 -0.468287,-0.193957 -0.182886,0 -0.348453,0.074122 -0.468287,0.193957 -0.119835,0.119835 -0.193957,0.285402 -0.193957,0.468287 0,0.182886 0.074122,0.348453 0.193957,0.468287 0.119835,0.119835 0.285402,0.193957 0.468287,0.193957 0.182882,0 0.348449,-0.074122 0.468287,-0.193957 0.119835,-0.119835 0.193957,-0.285402 0.193957,-0.468287 0,-0.182886 -0.074122,-0.348453 -0.193957,-0.468287z"/>
  <polygon class="fil0" points="5.44,1.00001 5.44,3.77334 5.22667,3.77334 5.22667,1.00001 "/>
  <path class="fil0" d="M5.00666 3.66667l0.653339 0c0.0569449,0 0.108634,0.0232323 0.146031,0.0606299 0.0374094,0.0374094 0.0606339,0.0891102 0.0606339,0.146035l0 1.68665c0,0.102764 -0.0419843,0.196126 -0.109598,0.263736 -0.0676102,0.0676142 -0.160972,0.109598 -0.263736,0.109598l-0.32 0c-0.10276,0 -0.19613,-0.0419764 -0.263748,-0.109591 -0.0676102,-0.0676142 -0.109587,-0.160972 -0.109587,-0.263744l0 -1.68665c0,-0.0564528 0.0232087,-0.107992 0.0606299,-0.145618l-3.93701e-006 -3.93701e-006 0.000208661 -0.000208661 0.000208661 -0.000208661 3.93701e-006 3.93701e-006c0.037626,-0.0374213 0.0891654,-0.0606299 0.145618,-0.0606299zm0.646665 0.213339l-0.639992 0 0 1.67997c0,0.0438819 0.0180354,0.0838622 0.0470827,0.112909 0.0290512,0.0290512 0.0690315,0.0470866 0.112913,0.0470866l0.32 0c0.0438701,0 0.0838504,-0.0180394 0.112902,-0.0470945 0.0290551,-0.0290512 0.0470945,-0.0690315 0.0470945,-0.112902l0 -1.67997z"/>
  <g id="_478124416">
   <polygon id="_478124848" class="fil0" points="5.24852,4.05333 5.24852,5.44 5.14185,5.44 5.14185,4.05333 "/>
   <polygon id="_478124584" class="fil0" points="5.52481,4.05333 5.52481,5.44 5.41814,5.44 5.41814,4.05333 "/>
  </g>
 </g>
 <rect class="fil1" width="6.82666" height="6.82666"/>
</svg>
